<?xml version="1.0" standalone="no"?>
<!DOCTYPE svg PUBLIC "-//W3C//DTD SVG 20010904//EN"
 "http://www.w3.org/TR/2001/REC-SVG-20010904/DTD/svg10.dtd">
<svg version="1.0" xmlns="http://www.w3.org/2000/svg"
 width="270.000000pt" height="270.000000pt" viewBox="0 0 270.000000 270.000000"
 preserveAspectRatio="xMidYMid meet">
<metadata>
Created by potrace 1.14, written by Peter Selinger 2001-2017
</metadata>
<g transform="translate(0.000000,270.000000) scale(0.100000,-0.100000)"
fill="#000000" stroke="none">
<path d="M1125 2330 c-314 -71 -578 -275 -720 -557 -26 -53 -74 -189 -81 -233
-12 -69 -22 -88 -118 -216 -36 -48 -96 -96 -158 -126 -30 -16 -38 -23 -25 -26
27 -6 177 45 177 61 0 4 5 7 10 7 14 0 159 98 260 175 159 123 281 196 365
221 50 14 136 20 175 11 8 -2 33 -7 55 -12 29 -6 54 -23 95 -64 63 -63 79
-100 129 -296 17 -66 45 -148 61 -181 47 -95 125 -162 198 -168 51 -5 48 -12
-20 -39 -49 -19 -79 -24 -135 -22 -65 1 -76 5 -116 36 -50 38 -88 96 -137 210
l-33 77 -54 -3 c-60 -3 -103 13 -126 48 -23 35 -34 88 -27 124 4 17 3 36 -1
40 -13 13 -124 5 -173 -11 -67 -23 -168 -74 -306 -155 -91 -54 -110 -69 -105
-84 3 -7 7 -23 9 -37 16 -84 59 -201 102 -279 36 -63 101 -152 117 -159 4 -2
7 -9 7 -15 0 -10 46 -56 121 -122 52 -46 155 -113 217 -141 76 -35 231 -86
242 -79 5 3 11 1 15 -5 6 -10 404 -8 435 2 8 3 22 7 30 10 8 3 40 13 70 23 55
17 221 92 230 104 3 3 25 19 48 34 68 44 242 222 242 247 0 6 5 10 10 10 6 0
16 12 23 28 6 15 14 29 18 32 5 5 72 139 75 150 0 3 3 12 7 20 10 26 27 86 32
111 3 13 9 47 15 74 13 64 18 144 11 171 -6 20 -15 15 -111 -57 -58 -44 -112
-85 -120 -92 -77 -62 -205 -136 -288 -166 -112 -41 -258 -19 -332 52 -63 59
-83 105 -140 321 -34 130 -63 196 -112 251 -36 42 -112 83 -157 87 -17 1 -31
5 -31 9 0 7 81 32 90 28 3 -1 16 3 28 10 29 16 95 16 149 2 76 -21 107 -66
224 -321 52 -113 87 -155 154 -186 101 -48 264 -14 430 89 242 150 350 197
458 200 37 1 67 3 67 5 0 9 -79 34 -128 39 -65 8 -85 8 -160 2 l-54 -4 -23 68
c-70 200 -228 398 -413 520 -83 55 -204 109 -295 133 -34 9 -71 18 -82 21 -11
3 -92 7 -180 8 -125 2 -177 -1 -240 -15z m786 -563 c27 -18 35 -31 40 -65 10
-75 -36 -132 -107 -132 -41 0 -94 59 -94 105 0 95 84 144 161 92z"/>
</g>
</svg>
